<svg width="59" height="70" viewBox="0 0 59 70" fill="none" xmlns="http://www.w3.org/2000/svg">
<g clip-path="url(#clip0_196_318)">
<path d="M43.503 0H14.7305C13.5098 0.000573804 12.3392 0.580213 11.476 1.61155C10.6127 2.6429 10.1274 4.04157 10.1267 5.50025V63.8112C10.1279 65.2697 10.6134 66.668 11.4765 67.6992C12.3396 68.7305 13.5099 69.3103 14.7305 69.3114H43.503C44.7237 69.31 45.8941 68.7302 46.7577 67.6991C47.6212 66.6681 48.1073 65.2699 48.1095 63.8112V5.50892C48.108 4.04994 47.6221 2.65127 46.7584 1.62002C45.8948 0.588772 44.7239 0.00923634 43.503 0.00866352" fill="#405866"/>
<path d="M40.5176 4.19755H17.7163C16.7493 4.19755 15.8217 4.65587 15.137 5.47198C14.4524 6.2881 14.0665 7.39538 14.0641 8.55097V54.7568C14.0661 55.9126 14.4518 57.0202 15.1365 57.8364C15.8213 58.6526 16.7491 59.1108 17.7163 59.1102H40.5176C42.5295 59.1102 44.1607 57.1501 44.1607 54.7568V8.54664C44.1607 6.14252 42.5249 4.19322 40.5176 4.19322" fill="#85CFEA"/>
<path d="M28.4834 4.19751H17.7216C16.7546 4.19751 15.827 4.65582 15.1424 5.47194C14.4577 6.28805 14.0719 7.39533 14.0695 8.55093V54.7567C14.0714 55.9125 14.4571 57.0201 15.1418 57.8364C15.8266 58.6526 16.7544 59.1107 17.7216 59.1102H40.5229C41.2597 59.1102 41.9403 58.8405 42.513 58.3965C32.8189 43.3068 27.6297 23.0223 28.4861 4.19534" fill="#28A6DE"/>
<path d="M32.1087 64.3159C32.1087 66.2836 30.7711 67.8874 29.1208 67.8874C27.4706 67.8874 26.1329 66.2847 26.1329 64.3159C26.1329 62.3471 27.4706 60.7444 29.1208 60.7444C30.7711 60.7444 32.1087 62.3471 32.1087 64.3159Z" fill="#CBD5DC"/>
<path d="M20.5948 64.3158C20.6009 64.6632 20.5489 65.0086 20.4419 65.3317C20.3349 65.6549 20.175 65.9492 19.9716 66.1976C19.7682 66.4459 19.5254 66.6433 19.2574 66.7781C18.9894 66.9129 18.7015 66.9824 18.4107 66.9827C18.1199 66.9829 17.832 66.9138 17.5639 66.7793C17.2957 66.6449 17.0527 66.4479 16.849 66.1999C16.6454 65.9518 16.4852 65.6577 16.3779 65.3348C16.2705 65.0118 16.2182 64.6665 16.2239 64.3191C16.2352 63.6357 16.4702 62.9848 16.8786 62.506C17.2869 62.0273 17.836 61.759 18.408 61.7586C18.9801 61.7581 19.5294 62.0257 19.9383 62.5038C20.3471 62.9819 20.5828 63.6324 20.5948 64.3158Z" fill="#CBD5DC"/>
<path d="M37.6461 64.3159C37.6377 64.6651 37.688 65.0127 37.794 65.3383C37.9 65.6639 38.0596 65.9607 38.2633 66.2113C38.4671 66.4618 38.7108 66.661 38.9801 66.797C39.2493 66.933 39.5387 67.0031 39.8311 67.0031C40.1234 67.0031 40.4128 66.933 40.6821 66.797C40.9514 66.661 41.1951 66.4618 41.3988 66.2113C41.6025 65.9607 41.7621 65.6639 41.8682 65.3383C41.9742 65.0127 42.0245 64.6651 42.016 64.3159C42.016 63.6234 41.7858 62.9593 41.3761 62.4696C40.9663 61.98 40.4106 61.7049 39.8311 61.7049C39.2516 61.7049 38.6958 61.98 38.2861 62.4696C37.8763 62.9593 37.6461 63.6234 37.6461 64.3159Z" fill="#CBD5DC"/>
</g>
<defs>
<clipPath id="clip0_196_318">
<rect width="58" height="69.3082" fill="white" transform="translate(0.118164)"/>
</clipPath>
</defs>
</svg>
