<svg width="64" height="76" viewBox="0 0 64 76" fill="none" xmlns="http://www.w3.org/2000/svg">
<path d="M2.11816 27.0625H27.9721L29.9609 31.375H4.10693L2.11816 27.0625ZM4.76985 35.6875H30.6238L32.6125 40H6.75861L4.76985 35.6875ZM47.8597 58.6875C50.0606 58.6875 51.8373 56.7612 51.8373 54.375C51.8373 51.9888 50.0606 50.0625 47.8597 50.0625C45.6588 50.0625 43.8822 51.9888 43.8822 54.375C43.8822 56.7612 45.6588 58.6875 47.8597 58.6875ZM51.8373 32.8125H45.2081V40H57.0346L51.8373 32.8125ZM21.3429 58.6875C23.5438 58.6875 25.3204 56.7612 25.3204 54.375C25.3204 51.9888 23.5438 50.0625 21.3429 50.0625C19.142 50.0625 17.3654 51.9888 17.3654 54.375C17.3654 56.7612 19.142 58.6875 21.3429 58.6875ZM53.1631 28.5L61.1182 40V54.375H55.8148C55.8148 59.1475 52.2615 63 47.8597 63C43.4579 63 39.9047 59.1475 39.9047 54.375H29.2979C29.2979 59.1475 25.7182 63 21.3429 63C16.9411 63 13.3878 59.1475 13.3878 54.375H8.08446V44.3125H13.3878V48.625H15.4031C16.8615 46.8713 18.9829 45.75 21.3429 45.75C23.7029 45.75 25.8242 46.8713 27.2827 48.625H39.9047V22.75H8.08446C8.08446 19.5587 10.4445 17 13.3878 17H45.2081V28.5H53.1631Z" fill="#6C63FF"/>
</svg>
