<svg width="96" height="92" viewBox="0 0 96 92" fill="none" xmlns="http://www.w3.org/2000/svg">
<path d="M24.1182 4.00201H75.1182V24.002H24.1182V4.00201Z" fill="white"/>
<path d="M26.8412 30.4412H68.538V68.05H26.8412V30.4412Z" fill="#006CA2"/>
<path d="M30.971 23.9191C30.5392 23.9191 30.1683 23.9439 30.1683 24.594C30.1683 24.9116 30.1543 25.2242 30.173 25.5418C30.1777 25.7155 30.2012 25.909 30.281 26.0579C30.3655 26.2117 30.4641 26.2117 30.6002 26.2316C30.7786 26.2613 30.9288 26.2663 31.1118 26.2663C31.5296 26.2663 31.9567 25.9834 32.107 25.5368C32.1821 25.2986 32.1868 25.0208 32.0741 24.7081C31.8769 24.202 31.3935 23.9191 30.971 23.9191Z" fill="#78A3AD"/>
<path d="M42.2324 23.1254L42.2183 23.0609C42.1338 22.6937 42.054 22.3265 41.9742 21.9593C41.9132 21.8352 41.871 21.6566 41.7161 21.7012C41.6081 21.731 41.5659 21.8749 41.5377 21.9543L41.5048 21.994C41.4297 22.5002 41.3452 23.0063 41.2561 23.5125L41.2467 23.5671L41.2185 23.6911C41.2044 23.84 41.1857 24.0037 41.2326 24.1476L41.3452 24.2965L41.5283 24.361L41.6551 24.4106H42.0916C42.622 24.2469 42.2981 23.5621 42.2465 23.1701L42.2324 23.1254Z" fill="#78A3AD"/>
<path d="M30.6095 21.0214C31.0272 21.1107 31.5718 20.9569 31.8158 20.4507C31.9942 20.0786 31.9614 19.6369 31.7501 19.3044L31.675 19.1953C31.506 18.9918 31.2619 18.9372 31.0413 18.9273C30.8207 18.9124 30.5672 18.9273 30.3607 19.0414L30.2574 19.1655C30.2011 19.2796 30.1542 19.4335 30.1307 19.5972C30.0697 19.9892 30.1166 20.4607 30.2621 20.7485C30.3419 20.9023 30.464 20.9916 30.6095 21.0214Z" fill="#78A3AD"/>
<path d="M68.7903 10H25.4554C23.0709 10 21.1182 12.0643 21.1182 14.5852V72.138H39.8566V62.4019C39.8566 60.9976 40.9409 59.8463 42.2693 59.8463H51.9623C53.2907 59.8463 54.3797 60.9976 54.3797 62.4019V72.138H73.1181V14.5852C73.1275 12.0643 71.1748 10 68.7903 10ZM33.6933 54.095H27.5865V46.3042H33.6933V54.095ZM33.6933 42.1756H27.5865V34.3848H33.6933V42.1756ZM35.4489 26.3161C35.0593 27.2887 34.3693 28.1273 33.4868 28.5292C32.4448 29.0056 31.3182 29.0602 30.2104 29.0304C29.5814 29.0155 28.7271 29.0652 28.1873 28.6583C27.1499 27.8693 27.3377 26.7676 27.3236 25.5568C27.3095 24.475 27.3095 23.3933 27.2767 22.3164C27.2485 21.319 27.2626 20.3464 27.2814 19.3688C27.2954 18.6493 27.1124 17.6965 27.5818 17.1011C28.3657 16.0987 29.8584 16.0739 30.9615 16.1632C32.7592 16.312 34.9701 17.2499 34.7307 19.7757C34.6885 20.1479 34.5805 20.5399 34.4021 20.8476C34.2144 21.1751 33.8248 21.5671 34.0078 22.0187C34.2191 22.5298 34.8575 22.8077 35.1485 23.3039C35.5005 23.9093 35.6648 24.4998 35.6742 25.0556C35.6836 25.4923 35.6038 25.924 35.4489 26.3161ZM44.6303 54.095H38.5235V46.3042H44.6303V54.095ZM44.6303 42.1756H38.5235V34.3848H44.6303V42.1756ZM45.1138 28.9808C44.5928 29.1198 43.5601 29.0056 43.3207 28.4101C42.9874 27.5765 43.1423 26.6088 42.0205 26.455C41.4948 26.3806 40.7343 26.6237 40.5137 27.1745C40.2884 27.7502 40.4668 28.4598 39.8847 28.8518C39.4904 29.1198 38.9365 29.1595 38.4812 29.0801C37.4579 28.9064 37.2138 28.1074 37.364 27.115C37.4392 26.6336 37.5377 26.1523 37.6551 25.6759C37.8804 24.7083 38.162 23.7505 38.3686 22.7829C38.5845 21.7706 38.7441 20.7483 39.0069 19.741C39.467 17.9496 40.3072 15.5876 42.5415 16.3815C43.4991 16.719 43.7666 17.8404 44.0764 18.7337C44.5271 20.0239 44.7054 21.4431 44.9871 22.7829C45.1936 23.7505 45.4706 24.7083 45.7006 25.6759C45.832 26.2515 46.0902 27.115 46.0151 27.8246C45.9587 28.3704 45.7193 28.8121 45.1138 28.9808ZM55.5673 54.095H49.4604V46.3042H55.5673V54.095ZM55.5673 42.1756H49.4604V34.3848H55.5673V42.1756ZM57.1257 25.3831C57.1163 25.7652 57.0976 26.2168 57.0365 26.6684C56.9474 27.3681 56.6939 28.5541 55.8724 28.6384C55.6049 28.6682 55.3138 28.6434 55.0791 28.5689C53.7695 28.162 53.5442 26.6684 52.765 25.6461C52.5632 25.3831 52.4224 25.1053 52.2675 24.8224C52.0891 24.4998 51.7323 23.8647 51.3287 23.8101C50.8311 23.7406 50.9437 24.475 50.9484 24.8373C50.9625 25.929 51.3052 28.2563 50.1129 28.8071C48.3433 29.6259 47.902 27.0852 47.8739 25.924C47.8363 24.475 47.6814 23.026 47.6814 21.5771C47.6814 20.4456 47.5641 18.0439 48.5029 17.2251C50.0237 15.9002 50.9344 17.2896 51.9013 18.4756C52.3426 19.0215 52.6289 19.5822 52.9997 20.1826C53.2203 20.5399 53.8024 20.927 53.9808 20.3514C54.2812 19.4085 53.9667 18.2275 54.4361 17.3541C55.0134 16.2872 56.661 16.5701 57.0929 17.637C57.1727 17.8305 57.1961 18.158 57.2196 18.3813C57.4731 20.6888 57.1633 23.0558 57.1257 25.3831ZM66.509 54.095H60.3974V46.3042H66.509V54.095ZM66.509 42.1756H60.3974V34.3848H66.509V42.1756ZM67.49 27.9586C67.2225 28.5739 66.4574 29.1843 65.8049 28.9262C65.0633 28.6334 64.6924 27.8345 64.4108 27.1051C64.1432 26.4004 63.824 25.6461 63.2138 25.1846C62.904 24.9465 62.6459 25.0755 62.4346 25.3236C61.5944 26.2912 62.9557 28.2762 61.5568 28.9262C61.2283 29.0751 60.7542 29.0602 60.4021 29.0205C58.6982 28.8319 59.055 27.0157 59.0456 25.6858C59.0362 24.5445 59.0362 23.4131 58.9986 22.2966C58.9658 21.2744 58.9845 20.2918 59.008 19.3142C59.0127 18.8974 59.0409 18.55 59.0878 18.1382C59.1441 17.6171 59.1019 17.0167 59.5854 16.6743C60.036 16.3567 60.6697 16.4361 61.1626 16.5751C61.8103 16.7587 61.8103 17.0217 62.0262 17.6717C62.1858 18.163 62.2046 18.7337 62.214 19.2547C62.2234 19.5624 62.275 19.9891 62.6365 19.9941C63.0073 19.9941 63.3218 19.3291 63.533 19.0711C63.7349 18.818 63.9649 18.5897 64.0869 18.287C64.5141 17.2648 65.8941 16.2872 66.8751 17.2499C67.7247 18.0786 67.0723 19.2348 66.4996 20.004C65.9786 20.7086 65.0633 21.4877 65.3965 22.4901C65.8002 23.7208 66.6592 24.7877 67.1521 25.9836C67.307 26.3508 67.5323 26.8569 67.5792 27.3284C67.5886 27.5467 67.5745 27.765 67.49 27.9586Z" fill="#78A3AD"/>
</svg>
