<svg width="96" height="92" viewBox="0 0 96 92" fill="none" xmlns="http://www.w3.org/2000/svg">
<path d="M47.0178 74.1906C60.8484 74.1906 72.0603 63.2174 72.0603 49.6813C72.0603 36.1451 60.8484 25.1719 47.0178 25.1719C33.1872 25.1719 21.9753 36.1451 21.9753 49.6813C21.9753 63.2174 33.1872 74.1906 47.0178 74.1906Z" fill="#428BC1"/>
<path d="M47.0175 68.7657C57.7747 68.7657 66.495 60.2213 66.495 49.6813C66.495 39.1413 57.7747 30.5969 47.0175 30.5969C36.2604 30.5969 27.54 39.1413 27.54 49.6813C27.54 60.2213 36.2604 68.7657 47.0175 68.7657Z" fill="white"/>
<path d="M26.0493 61.7907L23.863 75.0625H25.7511C26.9436 75.0625 27.3411 73.7063 28.1361 72.0594C29.1299 69.9282 31.5149 64.4063 31.5149 64.4063L26.0493 61.7907Z" fill="#428BC1"/>
<path d="M67.8864 61.7907L70.172 75.0625H68.2839C67.0914 75.0625 66.6939 73.7063 65.8989 72.0594C64.9052 69.9282 62.5202 64.4063 62.5202 64.4063L67.8864 61.7907Z" fill="#428BC1"/>
<path d="M28.3352 24.8812L34.1983 30.5968L31.1177 33.6968L25.2545 27.8843L28.3352 24.8812Z" fill="#428BC1"/>
<path d="M65.7 24.8812L59.8369 30.5968L62.9175 33.6968L68.7807 27.8843L65.7 24.8812Z" fill="#428BC1"/>
<path d="M20.7825 37.8625L38.2725 20.5219C36.0863 18.2937 33.0057 16.9375 29.5275 16.9375C22.6707 16.9375 17.1057 22.4594 17.1057 29.1437C17.1057 32.5344 18.4969 35.6344 20.7825 37.8625Z" fill="#B0B8B8"/>
<path d="M55.365 20.6188L73.0538 37.7656C75.3394 35.5375 76.7306 32.5344 76.7306 29.1438C76.7306 22.4594 71.1656 16.9375 64.2094 16.9375C60.7313 17.0344 57.6506 18.3906 55.365 20.6188Z" fill="#B0B8B8"/>
<path d="M35.5891 60.1438L45.8247 49.972L47.0172 51.1345L36.7816 61.2095L35.5891 60.1438Z" fill="#ED4C5C"/>
<path d="M47.0178 53.2655C49.0485 53.2655 50.6947 51.6607 50.6947 49.6811C50.6947 47.7015 49.0485 46.0968 47.0178 46.0968C44.9871 46.0968 43.3409 47.7015 43.3409 49.6811C43.3409 51.6607 44.9871 53.2655 47.0178 53.2655Z" fill="#428BC1"/>
<path d="M45.1295 36.0218H48.8064V50.5531H45.1295V36.0218Z" fill="#428BC1"/>
<path d="M48.8066 47.8405H56.2597V51.4249H48.8066V47.8405Z" fill="#428BC1"/>
</svg>
